<?xml version="1.0" encoding="utf-8"?>
	<svg version="1.0" xmlns="http://www.w3.org/2000/svg"
		width="450.000000pt" height="447.000000pt" viewBox="0 0 450.000000 447.000000"
		preserveAspectRatio="xMidYMid meet">
		<metadata>
			Created by potrace 1.10, written by Peter Selinger 2001-2011
		</metadata>
		<g transform="translate(0.000000,447.000000) scale(0.100000,-0.100000)"
			fill="#154CCB" stroke="none">
			<path d="M2058 4429 c-551 -49 -1108 -327 -1476 -739 -52 -58 -100 -117 -108
				-132 l-14 -27 136 -113 c75 -62 142 -117 150 -121 11 -6 21 0 36 20 46 62 299
				301 377 357 225 161 506 275 801 328 50 9 159 13 325 12 283 0 338 -8 566 -84
				357 -119 683 -353 889 -637 25 -34 51 -63 58 -63 14 0 283 238 289 256 6 17
				-94 142 -207 258 -337 347 -763 574 -1240 660 -80 15 -384 37 -460 35 -19 -1
				-74 -5 -122 -10z"/>
			<path d="M1590 3008 c-1 -743 -6 -852 -41 -925 -28 -57 -78 -115 -127 -145
				-33 -21 -49 -23 -157 -22 -85 1 -133 6 -164 18 -24 9 -47 16 -52 16 -5 0 -9
				-55 -9 -122 0 -99 4 -131 19 -165 23 -50 106 -118 164 -134 70 -19 232 -14
				307 10 210 66 378 248 442 478 22 77 22 93 26 862 2 637 1 786 -10 792 -7 5
				-100 9 -205 9 l-193 0 0 -672z"/>
			<path d="M221 3126 c-29 -35 -108 -266 -141 -411 -80 -354 -69 -747 29 -1097
				36 -127 125 -358 149 -388 l17 -21 56 48 c31 26 99 85 151 131 l95 83 -42 122
				c-24 68 -56 177 -71 242 -28 116 -29 129 -29 385 l0 265 34 135 c19 74 42 159
				52 189 11 30 19 62 19 71 0 9 -26 37 -57 62 -32 25 -102 79 -155 121 -75 59
				-99 73 -107 63z"/>
			<path d="M2460 3079 c-35 -5 -99 -16 -142 -25 l-78 -17 0 -273 c0 -151 3 -274
				6 -274 3 0 31 23 62 50 118 105 200 134 361 128 91 -3 113 -8 158 -31 69 -36
				145 -113 180 -184 26 -53 28 -67 28 -168 0 -91 -4 -118 -21 -155 -29 -62 -91
				-129 -155 -167 -103 -62 -276 -65 -388 -8 -61 30 -153 115 -196 178 -18 27
				-35 45 -38 40 -4 -7 -12 -467 -8 -501 2 -18 110 -86 195 -121 101 -42 235 -58
				358 -42 250 32 473 193 587 424 66 133 85 212 85 357 0 226 -85 424 -251 582
				-189 179 -433 247 -743 207z"/>
			<path d="M4190 2969 c-203 -161 -203 -160 -176 -237 28 -79 58 -250 66 -380
				16 -252 -15 -484 -94 -720 l-34 -101 111 -93 c167 -139 196 -161 211 -155 30
				12 147 373 182 562 28 147 28 651 0 775 -40 183 -124 440 -144 440 -4 0 -59
				-41 -122 -91z"/>
			<path d="M3667 1071 c-68 -81 -214 -211 -335 -298 -155 -111 -366 -209 -588
				-272 -163 -47 -233 -53 -535 -49 -257 4 -280 6 -369 31 -415 113 -716 288
				-966 561 -43 48 -84 85 -91 84 -17 -4 -293 -259 -293 -270 0 -6 60 -71 133
				-145 186 -190 341 -304 578 -426 646 -331 1427 -339 2067 -22 244 121 439 263
				639 466 124 125 147 154 138 169 -12 20 -294 240 -307 240 -8 0 -40 -31 -71
				-69z"/>
		</g>
	</svg>
